<?xml version="1.0" encoding="UTF-8"?>
<svg version="1.1" xmlns="http://www.w3.org/2000/svg" width="502" height="430">
<path d="M0 0 C165.66 0 331.32 0 502 0 C502 141.9 502 283.8 502 430 C336.34 430 170.68 430 0 430 C0 288.1 0 146.2 0 0 Z " fill="#FEFEFE" transform="translate(0,0)"/>
<path d="M0 0 C1.164673 0.5281279 1.164673 0.5281279 2.35287476 1.06692505 C4.90487993 2.22572296 7.45233875 3.39418696 10 4.5625 C11.78430339 5.37433693 13.56897696 6.1853607 15.35400391 6.99560547 C19.05383842 8.67532067 22.75236658 10.35786646 26.45019531 12.04199219 C34.27585089 15.60134701 42.12420901 19.10978087 49.97412109 22.61523438 C52.29433531 23.65147404 54.61404661 24.68883063 56.93359375 25.7265625 C58.40103578 26.38282566 59.8684836 27.03907588 61.3359375 27.6953125 C62.03966492 28.01018616 62.74339233 28.32505981 63.46844482 28.6494751 C67.32901432 30.37514403 71.19380053 32.09073908 75.06347656 33.79589844 C75.89513336 34.16311005 76.72679016 34.53032166 77.58364868 34.90866089 C79.19131927 35.61809481 80.79983041 36.3256277 82.40927124 37.03103638 C87.88832147 39.45082147 87.88832147 39.45082147 89 40.5625 C89.11310799 42.06883489 89.15736706 43.58039843 89.17408752 45.09088135 C89.19349144 46.55878868 89.19349144 46.55878868 89.21328735 48.05635071 C89.22226044 49.13893661 89.23123352 50.22152252 89.24047852 51.33691406 C89.25347488 52.47019638 89.26647125 53.6034787 89.27986145 54.77110291 C89.39164707 65.23043107 89.45240904 75.69045817 89.49662876 86.15028763 C89.52987073 93.88407636 89.58941559 101.61669368 89.68413979 109.34997964 C89.75622412 115.44059637 89.78458455 121.53074481 89.79795647 127.62175751 C89.81023628 130.21343851 89.83634182 132.80509159 89.87640572 135.396492 C89.92965685 139.02212745 89.93289474 142.64456634 89.92407227 146.27050781 C89.96485901 147.88224129 89.96485901 147.88224129 90.00646973 149.52653503 C89.91708326 156.63784134 89.91708326 156.63784134 87.26128387 159.31557846 C85.21680097 160.61827624 83.23253039 161.62558084 81 162.5625 C80.0207959 163.05459961 79.0415918 163.54669922 78.03271484 164.05371094 C76.63593506 164.66907715 76.63593506 164.66907715 75.2109375 165.296875 C74.12385498 165.77979004 73.03677246 166.26270508 71.91674805 166.76025391 C70.74797119 167.27249512 69.57919434 167.78473633 68.375 168.3125 C67.11665177 168.86962181 65.85860356 169.42742168 64.60083008 169.98583984 C61.87222888 171.19659445 59.14235228 172.40440898 56.41162109 173.61035156 C49.31212738 176.74846284 42.22771273 179.92038713 35.1423645 183.090271 C32.69662059 184.18342345 30.24967045 185.27383682 27.80249023 186.36376953 C20.64542717 189.55555716 13.50344542 192.76855509 6.421875 196.125 C5.30981689 196.64884277 4.19775879 197.17268555 3.05200195 197.71240234 C1.04221226 198.66428361 -0.9623273 199.62736839 -2.96020508 200.60400391 C-3.83056396 201.01569824 -4.70092285 201.42739258 -5.59765625 201.8515625 C-6.70379272 202.38837646 -6.70379272 202.38837646 -7.83227539 202.93603516 C-13.19046832 204.48453421 -18.17429555 201.29538192 -22.97265625 199.08984375 C-24.14751839 198.5576825 -24.14751839 198.5576825 -25.34611511 198.01477051 C-27.03707199 197.2481904 -28.72696305 196.47925579 -30.41589355 195.70822144 C-34.00450196 194.06995988 -37.59811769 192.44282815 -41.19155884 190.81520081 C-43.04465745 189.97578613 -44.89749927 189.13580437 -46.75009155 188.29527283 C-55.13958711 184.49097124 -63.55278711 180.74138304 -71.97442627 177.00888062 C-74.23140035 176.0082462 -76.48764959 175.00599603 -78.74365234 174.00317383 C-85.04198726 171.20385036 -91.34246635 168.40996079 -97.65234375 165.63671875 C-99.49744543 164.82042461 -101.34250233 164.00402921 -103.1875 163.1875 C-103.99541992 162.8361499 -104.80333984 162.4847998 -105.63574219 162.12280273 C-110.88669374 159.78911252 -110.88669374 159.78911252 -112 157.5625 C-112.08691001 154.71820643 -112.11553802 151.89870824 -112.09765625 149.0546875 C-112.0962413 148.21406769 -112.09482635 147.37344788 -112.09336853 146.50735474 C-112.08776237 143.81736725 -112.07520886 141.12746241 -112.0625 138.4375 C-112.05748579 136.61588662 -112.05292275 134.79427193 -112.04882812 132.97265625 C-112.03779094 128.50257223 -112.0205222 124.03255014 -112 119.5625 C-112.92506348 119.63106201 -113.85012695 119.69962402 -114.80322266 119.77026367 C-141.80621369 121.74140084 -141.80621369 121.74140084 -148 116.5625 C-151.15604782 113.6856112 -152.77393512 110.83792787 -153.20166016 106.53271484 C-153.41994797 101.5314507 -153.25552288 96.55939191 -153 91.5625 C-151.0625 91 -151.0625 91 -149 90.5625 C-146.83840001 92.72409999 -147.22434754 97.80149263 -146.92578125 100.83984375 C-146.43259038 105.0946599 -145.72549669 108.21368344 -143 111.5625 C-139.1817553 113.48902566 -136.06950036 113.79963793 -131.82421875 113.7578125 C-130.78096436 113.75281738 -129.73770996 113.74782227 -128.6628418 113.74267578 C-127.350979 113.72446777 -126.03911621 113.70625977 -124.6875 113.6875 C-120.500625 113.64625 -116.31375 113.605 -112 113.5625 C-112 103.0025 -112 92.4425 -112 81.5625 C-114.97 82.0575 -114.97 82.0575 -118 82.5625 C-120.29083289 82.62772873 -122.58335794 82.6483841 -124.875 82.625 C-126.60363281 82.61146484 -126.60363281 82.61146484 -128.3671875 82.59765625 C-129.67042969 82.58025391 -129.67042969 82.58025391 -131 82.5625 C-131.625 80.6875 -131.625 80.6875 -132 78.5625 C-128.9896755 75.5521755 -126.77096379 75.58430327 -122.546875 75.46484375 C-120.66742188 75.48224609 -120.66742188 75.48224609 -118.75 75.5 C-116.85507812 75.51353516 -116.85507812 75.51353516 -114.921875 75.52734375 C-113.47554688 75.54474609 -113.47554688 75.54474609 -112 75.5625 C-112.03927612 73.99568481 -112.03927612 73.99568481 -112.0793457 72.3972168 C-112.16982503 68.52292286 -112.22723969 64.64872225 -112.2746582 60.77368164 C-112.29980792 59.09643859 -112.33393259 57.4193052 -112.37719727 55.74243164 C-112.4378346 53.33191915 -112.46620284 50.92285448 -112.48828125 48.51171875 C-112.52699089 47.38657112 -112.52699089 47.38657112 -112.56648254 46.23869324 C-112.56762695 44.1159668 -112.56762695 44.1159668 -112 40.5625 C-109.7734375 38.70703125 -109.7734375 38.70703125 -107 37.5625 C-106.20682373 37.17747314 -105.41364746 36.79244629 -104.59643555 36.39575195 C-103.784729 36.03441162 -102.97302246 35.67307129 -102.13671875 35.30078125 C-101.25048828 34.90439453 -100.36425781 34.50800781 -99.45117188 34.09960938 C-98.0831543 33.49342773 -98.0831543 33.49342773 -96.6875 32.875 C-95.75615234 32.45927734 -94.82480469 32.04355469 -93.86523438 31.61523438 C-91.57807304 30.59480855 -89.28964905 29.57732847 -87 28.5625 C-91.42664564 28.25754515 -91.42664564 28.25754515 -95.375 30.0625 C-95.91125 30.5575 -96.4475 31.0525 -97 31.5625 C-97.67305018 29.96100114 -98.33822227 28.35618971 -99 26.75 C-99.37125 25.85667969 -99.7425 24.96335938 -100.125 24.04296875 C-101 21.5625 -101 21.5625 -101 18.5625 C-99.35546875 17.2109375 -99.35546875 17.2109375 -97.1875 15.9375 C-96.47980469 15.51210937 -95.77210938 15.08671875 -95.04296875 14.6484375 C-93 13.5625 -93 13.5625 -90 12.5625 C-88.9923048 14.3289657 -87.99408286 16.10083823 -87 17.875 C-86.443125 18.86113281 -85.88625 19.84726563 -85.3125 20.86328125 C-84 23.5625 -84 23.5625 -84 26.5625 C-75.27119472 23.23474638 -66.77547084 19.39152543 -58.25830078 15.56390381 C-55.71919875 14.42366807 -53.17815622 13.28785175 -50.63671875 12.15283203 C-43.33892832 8.88922876 -36.05195194 5.6121914 -28.828125 2.1875 C-27.31653809 1.4761792 -27.31653809 1.4761792 -25.77441406 0.75048828 C-23.98348324 -0.09706768 -22.1984317 -0.95721396 -20.42089844 -1.83251953 C-19.64262695 -2.19974121 -18.86435547 -2.56696289 -18.0625 -2.9453125 C-17.41410156 -3.26129395 -16.76570312 -3.57727539 -16.09765625 -3.90283203 C-10.40547367 -5.35370259 -5.05425059 -2.33794361 0 0 Z " fill="#0F0F0F" transform="translate(390,144.4375)"/>
<path d="M0 0 C1.164673 0.5281279 1.164673 0.5281279 2.35287476 1.06692505 C4.90487993 2.22572296 7.45233875 3.39418696 10 4.5625 C11.78430339 5.37433693 13.56897696 6.1853607 15.35400391 6.99560547 C19.05383842 8.67532067 22.75236658 10.35786646 26.45019531 12.04199219 C34.27585089 15.60134701 42.12420901 19.10978087 49.97412109 22.61523438 C52.29433531 23.65147404 54.61404661 24.68883063 56.93359375 25.7265625 C58.40103578 26.38282566 59.8684836 27.03907588 61.3359375 27.6953125 C62.03966492 28.01018616 62.74339233 28.32505981 63.46844482 28.6494751 C67.32901432 30.37514403 71.19380053 32.09073908 75.06347656 33.79589844 C75.89513336 34.16311005 76.72679016 34.53032166 77.58364868 34.90866089 C79.19131927 35.61809481 80.79983041 36.3256277 82.40927124 37.03103638 C87.88832147 39.45082147 87.88832147 39.45082147 89 40.5625 C89.08865208 43.4468382 89.11521296 46.30712158 89.09765625 49.19140625 C89.09553383 50.48775246 89.09553383 50.48775246 89.09336853 51.81028748 C89.08775239 54.58189292 89.07519719 57.3534188 89.0625 60.125 C89.05748708 61.9993478 89.05292381 63.87369685 89.04882812 65.74804688 C89.03777772 70.35289544 89.0205023 74.95768421 89 79.5625 C90.06621582 79.40386475 91.13243164 79.24522949 92.23095703 79.08178711 C111.82233936 76.38254691 111.82233936 76.38254691 119.4375 81.1875 C122.81926702 83.76994027 124.46135724 86.60865437 126 90.5625 C126.33102503 93.3705054 126.2870146 96.1153679 126.1875 98.9375 C126.17396484 99.67355469 126.16042969 100.40960938 126.14648438 101.16796875 C126.11144869 102.96646743 126.05765288 104.76458422 126 106.5625 C123.525 107.0575 123.525 107.0575 121 107.5625 C119.28322573 104.12895145 119.71289898 99.95526923 119.65820312 96.1484375 C119.51495389 92.76375788 119.23212445 90.86450612 117.14453125 88.1484375 C113.66829773 85.577671 110.86784972 85.44168315 106.67578125 85.46484375 C105.74934814 85.46734131 104.82291504 85.46983887 103.8684082 85.47241211 C102.6949585 85.48151611 101.52150879 85.49062012 100.3125 85.5 C96.579375 85.520625 92.84625 85.54125 89 85.5625 C89 95.7925 89 106.0225 89 116.5625 C93.95 116.5625 98.9 116.5625 104 116.5625 C103 121.5625 103 121.5625 102 122.5625 C99.81360547 122.63508946 97.62499611 122.64623783 95.4375 122.625 C93.64119141 122.61146484 93.64119141 122.61146484 91.80859375 122.59765625 C90.41833984 122.58025391 90.41833984 122.58025391 89 122.5625 C89.04189453 123.59656982 89.08378906 124.63063965 89.12695312 125.69604492 C89.27208974 129.5439483 89.36370609 133.39161209 89.43945312 137.24145508 C89.47961164 138.9052807 89.53415464 140.56882522 89.60351562 142.23168945 C90.15734506 155.85345008 90.15734506 155.85345008 87.62744141 159.58935547 C85.47402398 161.00265868 83.44514211 161.75270544 81 162.5625 C79.06547662 163.46364896 77.13617796 164.37606052 75.2109375 165.296875 C72.93489427 166.30796246 70.65605818 167.31277794 68.375 168.3125 C67.11665177 168.86962181 65.85860356 169.42742168 64.60083008 169.98583984 C61.87222888 171.19659445 59.14235228 172.40440898 56.41162109 173.61035156 C49.31212738 176.74846284 42.22771273 179.92038713 35.1423645 183.090271 C32.69662059 184.18342345 30.24967045 185.27383682 27.80249023 186.36376953 C20.64542717 189.55555716 13.50344542 192.76855509 6.421875 196.125 C5.30981689 196.64884277 4.19775879 197.17268555 3.05200195 197.71240234 C1.04221226 198.66428361 -0.9623273 199.62736839 -2.96020508 200.60400391 C-3.83056396 201.01569824 -4.70092285 201.42739258 -5.59765625 201.8515625 C-6.70379272 202.38837646 -6.70379272 202.38837646 -7.83227539 202.93603516 C-13.19046832 204.48453421 -18.17429555 201.29538192 -22.97265625 199.08984375 C-24.14751839 198.5576825 -24.14751839 198.5576825 -25.34611511 198.01477051 C-27.03707199 197.2481904 -28.72696305 196.47925579 -30.41589355 195.70822144 C-34.00450196 194.06995988 -37.59811769 192.44282815 -41.19155884 190.81520081 C-43.04465745 189.97578613 -44.89749927 189.13580437 -46.75009155 188.29527283 C-55.13958711 184.49097124 -63.55278711 180.74138304 -71.97442627 177.00888062 C-74.23140035 176.0082462 -76.48764959 175.00599603 -78.74365234 174.00317383 C-85.04198726 171.20385036 -91.34246635 168.40996079 -97.65234375 165.63671875 C-99.49744543 164.82042461 -101.34250233 164.00402921 -103.1875 163.1875 C-104.39937988 162.66047485 -104.39937988 162.66047485 -105.63574219 162.12280273 C-110.88669374 159.78911252 -110.88669374 159.78911252 -112 157.5625 C-112.10294361 156.01103366 -112.14379107 154.45525089 -112.15390015 152.90040588 C-112.16250061 151.91753601 -112.17110107 150.93466614 -112.17996216 149.92201233 C-112.18635208 148.29881325 -112.18635208 148.29881325 -112.19287109 146.64282227 C-112.20104858 145.50618134 -112.20922607 144.36954041 -112.21765137 143.19845581 C-112.24252957 139.42527806 -112.25902495 135.6521379 -112.2734375 131.87890625 C-112.27876118 130.59367506 -112.28408485 129.30844387 -112.28956985 127.98426628 C-112.31080154 122.58583587 -112.32993274 117.18741776 -112.34119225 111.78895664 C-112.35744511 104.04706588 -112.3906592 96.30567591 -112.44759309 88.56397396 C-112.49090352 82.46748158 -112.50693101 76.37118632 -112.51332474 70.27454948 C-112.52006389 67.67849088 -112.53535424 65.08244032 -112.55921555 62.48648262 C-112.5906455 58.86111956 -112.59093695 55.23703437 -112.58349609 51.61157227 C-112.59990143 50.53146378 -112.61630676 49.45135529 -112.63320923 48.33851624 C-112.61054153 45.65253067 -112.55593187 43.19009678 -112 40.5625 C-109.66410828 38.46914673 -109.66410828 38.46914673 -107 37.5625 C-105.41143188 36.79256714 -105.41143188 36.79256714 -103.79077148 36.00708008 C-102.56897202 35.44561592 -101.34565086 34.88745523 -100.12109375 34.33203125 C-99.44914978 34.02461502 -98.77720581 33.71719879 -98.0848999 33.40046692 C-95.87055051 32.38876335 -93.65412221 31.38171308 -91.4375 30.375 C-89.87733484 29.663955 -88.3171953 28.95285378 -86.75708008 28.24169922 C-74.08694496 22.47509985 -61.37713229 16.79790037 -48.63989258 11.18115234 C-42.08033527 8.2858598 -35.5388103 5.37115825 -29.05859375 2.30078125 C-28.03934814 1.82108887 -27.02010254 1.34139648 -25.9699707 0.84716797 C-24.14567979 -0.01668145 -22.32716741 -0.89290548 -20.51635742 -1.78466797 C-19.7297876 -2.1560791 -18.94321777 -2.52749023 -18.1328125 -2.91015625 C-17.47168457 -3.23250244 -16.81055664 -3.55484863 -16.12939453 -3.88696289 C-10.4219225 -5.36258195 -5.0708724 -2.34563236 0 0 Z " fill="#0F0F0F" transform="translate(134,144.4375)"/>
<path d="M0 0 C1.12873032 -0.00426498 2.25746063 -0.00852997 3.4203949 -0.01292419 C5.27900146 -0.01224442 5.27900146 -0.01224442 7.17515564 -0.0115509 C8.47935959 -0.01490952 9.78356354 -0.01826813 11.12728882 -0.02172852 C14.70564842 -0.03056698 18.28398411 -0.0329065 21.86235356 -0.0335443 C24.84719739 -0.03449333 27.83203563 -0.03817138 30.81687731 -0.0417164 C37.85557712 -0.04985959 44.89426415 -0.05230067 51.93296814 -0.05158997 C59.20219433 -0.05098849 66.47134648 -0.0615545 73.74055392 -0.07733363 C79.97669102 -0.09038961 86.21280385 -0.09577472 92.44895452 -0.09513456 C96.17583566 -0.09487909 99.90265094 -0.09775718 103.62951851 -0.10831261 C107.78150159 -0.11975133 111.93331749 -0.11525876 116.08531189 -0.10920715 C117.9469548 -0.11763641 117.9469548 -0.11763641 119.84620667 -0.12623596 C121.5350724 -0.11994423 121.5350724 -0.11994423 123.25805664 -0.11352539 C124.24047868 -0.11407016 125.22290071 -0.11461493 126.23509312 -0.1151762 C128.5655365 0.13371277 128.5655365 0.13371277 130.5655365 2.13371277 C130.76413355 4.88876363 130.83824541 7.5433014 130.82432556 10.29948425 C130.82958252 11.56553497 130.82958252 11.56553497 130.83494568 12.85716248 C130.84377191 15.65646002 130.8379102 18.45550625 130.8311615 21.25480652 C130.83250802 23.19532317 130.83444844 25.13583949 130.83695984 27.07635498 C130.83991241 31.14767156 130.83560964 35.2189005 130.82627869 39.29020691 C130.81489167 44.51379859 130.82143804 49.73718459 130.83342361 54.9607687 C130.84064508 58.96956944 130.83835283 62.97832129 130.83316803 66.98712349 C130.83183193 68.91328518 130.83347785 70.83945129 130.83812714 72.76560783 C130.8431962 75.4567073 130.83547642 78.14747225 130.82432556 80.83854675 C130.83039825 82.03792625 130.83039825 82.03792625 130.83659363 83.26153564 C130.80718584 87.08512547 130.73812212 88.87483434 128.5655365 92.13371277 C124.9405365 92.32121277 124.9405365 92.32121277 121.5655365 92.13371277 C121.2355365 89.82371277 120.9055365 87.51371277 120.5655365 85.13371277 C120.5036615 86.26808777 120.4417865 87.40246277 120.3780365 88.57121277 C119.55560877 95.01356333 116.47532405 100.73416601 111.6280365 105.07121277 C106.18529626 108.73673171 101.09486295 109.89464931 94.5655365 109.13371277 C88.05754745 107.78807593 84.18884464 104.63814843 80.5655365 99.13371277 C79.55539029 97.13881813 78.5544143 95.13923532 77.5655365 93.13371277 C76.54933731 93.14481583 75.53313812 93.15591888 74.48614502 93.1673584 C64.90759207 93.26873407 55.32914802 93.34367795 45.75018024 93.39277363 C40.82553047 93.41886301 35.9013139 93.45424906 30.97691345 93.51091003 C26.22418145 93.56525329 21.471866 93.59513826 16.71884727 93.60809898 C14.90591563 93.61733472 13.09300667 93.63537029 11.28025246 93.66236305 C8.73983704 93.69868518 6.20114068 93.70365696 3.6605072 93.70133972 C2.91172302 93.7193161 2.16293884 93.73729248 1.39146423 93.7558136 C-2.32149696 93.71919027 -4.31090817 93.21752548 -7.40393066 91.11940002 C-9.9951528 87.3092775 -10.11234741 84.24652689 -10.01795959 79.79508972 C-10.02029602 78.96851868 -10.02263245 78.14194763 -10.02503967 77.29032898 C-10.02665051 74.56690134 -9.99266593 71.84518042 -9.957901 69.12199402 C-9.95111038 67.22821667 -9.94638891 65.33443086 -9.94364929 63.44064331 C-9.93298024 59.47699881 -9.90630122 55.51391954 -9.86659241 51.55046082 C-9.8156214 46.46253508 -9.79056561 41.37493351 -9.77565575 36.28678608 C-9.76088816 31.44014354 -9.73565387 26.59357758 -9.707901 21.74699402 C-9.70299023 20.818706 -9.69807945 19.89041798 -9.69301987 18.93400002 C-9.67678948 16.31729861 -9.65338721 13.70077209 -9.62733459 11.08415222 C-9.62307465 10.30438522 -9.6188147 9.52461823 -9.61442566 8.72122192 C-9.54959799 3.36398175 -9.54959799 3.36398175 -8.4344635 1.13371277 C-5.34825307 0.10497596 -3.23405613 0.00551463 0 0 Z " fill="#080808" transform="translate(183.43446350097656,52.86628723144531)"/>
<path d="M0 0 C0 34.98 0 69.96 0 106 C-40.05306724 124.30997359 -40.05306724 124.30997359 -54.25 130.5625 C-57.1310539 131.83272957 -60.01127651 133.10481557 -62.890625 134.37890625 C-63.56863159 134.6785025 -64.24663818 134.97809875 -64.94519043 135.28677368 C-70.39381944 137.70519707 -75.79538956 140.21901636 -81.16802979 142.80189514 C-84.14372266 144.21520647 -86.77711745 145.19427936 -90 146 C-90 110.69 -90 75.38 -90 39 C-78.12 33.72 -66.24 28.44 -54 23 C-46.80953806 19.77717868 -39.62059083 16.55161272 -32.4375 13.3125 C-30.76761247 12.56047062 -29.09769033 11.80851807 -27.42773438 11.05664062 C-26.2066246 10.5065181 -26.2066246 10.5065181 -24.96084595 9.94528198 C-23.39482495 9.23992895 -21.82857217 8.53509022 -20.26205444 7.83084106 C-17.00365184 6.36412295 -13.75370429 4.88494694 -10.51611328 3.37255859 C-9.53239746 2.91316895 -8.54868164 2.4537793 -7.53515625 1.98046875 C-6.71539307 1.59141357 -5.89562988 1.2023584 -5.05102539 0.80151367 C-3 0 -3 0 0 0 Z " fill="#FDFDFD" transform="translate(472,193)"/>
<path d="M0 0 C5.75748923 1.91916308 10.84850462 3.71244941 16.26953125 6.23046875 C17.26977325 6.69193298 17.26977325 6.69193298 18.29022217 7.16271973 C19.72198363 7.82359612 21.15282071 8.48647831 22.58279419 9.1512146 C26.44109039 10.94440902 30.30645476 12.72222604 34.171875 14.5 C34.97262955 14.86856613 35.77338409 15.23713226 36.59840393 15.61686707 C47.0479223 20.41565112 57.57063369 25.0505397 68.0949707 29.68237305 C69.17986786 30.16148132 69.17986786 30.16148132 70.28668213 30.65026855 C71.61424014 31.23653342 72.94263569 31.82090831 74.27215576 32.40270996 C79.62084444 34.76703544 84.74820277 37.37410138 90 40 C90 74.65 90 109.3 90 145 C83.25023153 143.87503859 83.25023153 143.87503859 80.10717773 142.44042969 C79.39936157 142.12162338 78.69154541 141.80281708 77.96228027 141.47434998 C76.83433044 140.95337486 76.83433044 140.95337486 75.68359375 140.421875 C74.48180481 139.87727379 74.48180481 139.87727379 73.2557373 139.32167053 C70.64663388 138.1376402 68.04211579 136.94386535 65.4375 135.75 C63.63192461 134.92854867 61.82601357 134.10783473 60.01977539 133.2878418 C56.39082202 131.63981215 52.76330105 129.98868939 49.13671875 128.33544922 C44.57799107 126.25969076 40.01100679 124.20312253 35.4375 122.16015625 C34.78822037 121.87008698 34.13894073 121.5800177 33.46998596 121.28115845 C30.5142417 119.96143107 27.55781638 118.64323307 24.60131836 117.32519531 C16.35576398 113.63757044 8.18863139 109.82136132 0 106 C0 71.02 0 36.04 0 0 Z " fill="#FDFDFD" transform="translate(29,193)"/>
<path d="M0 0 C5.75748923 1.91916308 10.84850462 3.71244941 16.26953125 6.23046875 C17.26977325 6.69193298 17.26977325 6.69193298 18.29022217 7.16271973 C19.72198363 7.82359612 21.15282071 8.48647831 22.58279419 9.1512146 C26.44109039 10.94440902 30.30645476 12.72222604 34.171875 14.5 C34.97262955 14.86856613 35.77338409 15.23713226 36.59840393 15.61686707 C47.0479223 20.41565112 57.57063369 25.0505397 68.0949707 29.68237305 C69.17986786 30.16148132 69.17986786 30.16148132 70.28668213 30.65026855 C71.61424014 31.23653342 72.94263569 31.82090831 74.27215576 32.40270996 C79.62084444 34.76703544 84.74820277 37.37410138 90 40 C90 74.65 90 109.3 90 145 C83.25023153 143.87503859 83.25023153 143.87503859 80.10717773 142.44042969 C79.39936157 142.12162338 78.69154541 141.80281708 77.96228027 141.47434998 C76.83433044 140.95337486 76.83433044 140.95337486 75.68359375 140.421875 C74.48180481 139.87727379 74.48180481 139.87727379 73.2557373 139.32167053 C70.64663388 138.1376402 68.04211579 136.94386535 65.4375 135.75 C63.63192461 134.92854867 61.82601357 134.10783473 60.01977539 133.2878418 C56.39082202 131.63981215 52.76330105 129.98868939 49.13671875 128.33544922 C44.57799107 126.25969076 40.01100679 124.20312253 35.4375 122.16015625 C34.78822037 121.87008698 34.13894073 121.5800177 33.46998596 121.28115845 C30.5142417 119.96143107 27.55781638 118.64323307 24.60131836 117.32519531 C16.35576398 113.63757044 8.18863139 109.82136132 0 106 C0 94.12 0 82.24 0 70 C3.3 68.35 6.6 66.7 10 65 C14.51965896 60.24891272 14.61765927 55.86094141 14.5 49.625 C14.51546875 48.81289062 14.5309375 48.00078125 14.546875 47.1640625 C14.50781053 41.07000481 13.5214978 37.03828751 10 32 C6.7 30.35 3.4 28.7 0 27 C0 18.09 0 9.18 0 0 Z " fill="#FDFDFD" transform="translate(285,193)"/>
<path d="M0 0 C0 10.23 0 20.46 0 31 C-2.31 31.66 -4.62 32.32 -7 33 C-12.90274076 35.10097552 -16.17181644 37.34363288 -19 43 C-19.41536052 50.83076753 -19.61777942 59.25451371 -17.0625 66.75 C-12.57468707 71.64579593 -6.36790046 73.72641991 0 75 C0 85.23 0 95.46 0 106 C-19.49602367 114.96149743 -39.02214003 123.8437814 -58.65332031 132.50585938 C-60.06585329 133.12998639 -61.47829012 133.75433107 -62.890625 134.37890625 C-63.56740295 134.67793854 -64.24418091 134.97697083 -64.94146729 135.2850647 C-70.39129089 137.70417016 -75.79415456 140.21842264 -81.16802979 142.80189514 C-84.14372266 144.21520647 -86.77711745 145.19427936 -90 146 C-90 110.69 -90 75.38 -90 39 C-78.12 33.72 -66.24 28.44 -54 23 C-46.80953806 19.77717868 -39.62059083 16.55161272 -32.4375 13.3125 C-30.76761247 12.56047062 -29.09769033 11.80851807 -27.42773438 11.05664062 C-26.2066246 10.5065181 -26.2066246 10.5065181 -24.96084595 9.94528198 C-23.39482495 9.23992895 -21.82857217 8.53509022 -20.26205444 7.83084106 C-17.00365184 6.36412295 -13.75370429 4.88494694 -10.51611328 3.37255859 C-9.53239746 2.91316895 -8.54868164 2.4537793 -7.53515625 1.98046875 C-6.71539307 1.59141357 -5.89562988 1.2023584 -5.05102539 0.80151367 C-3 0 -3 0 0 0 Z " fill="#FDFDFD" transform="translate(216,193)"/>
<path d="M0 0 C0.75935852 0.34078079 1.51871704 0.68156158 2.30108643 1.03266907 C4.78672136 2.14898586 7.2702759 3.2698564 9.75390625 4.390625 C11.47681462 5.16497663 13.19987912 5.93898098 14.9230957 6.71264648 C20.05594966 9.01809234 25.18647256 11.32868971 30.31640625 13.640625 C46.24365261 20.81820891 62.16308272 27.98215665 78.31640625 34.640625 C78.31640625 35.300625 78.31640625 35.960625 78.31640625 36.640625 C77.65036377 36.93606201 76.98432129 37.23149902 76.2980957 37.53588867 C63.16921294 43.36113898 50.04726377 49.20123162 36.94140625 55.078125 C35.75716064 55.60849365 34.57291504 56.1388623 33.3527832 56.68530273 C27.64790987 59.24186422 21.94648641 61.8054074 16.25448608 64.39051819 C13.58579463 65.60196076 10.9153842 66.80958634 8.24481201 68.01687622 C6.97152146 68.59379633 5.69908125 69.17259733 4.42755127 69.75338745 C2.66347468 70.55904051 0.89625143 71.3577927 -0.87109375 72.15625 C-1.87527344 72.61290039 -2.87945312 73.06955078 -3.9140625 73.54003906 C-8.53889166 75.37790312 -10.48980074 76.05879023 -15.35180664 74.35571289 C-16.79292198 73.70535439 -18.22738079 73.04012125 -19.65625 72.36328125 C-20.43989929 72.00549591 -21.22354858 71.64771057 -22.03094482 71.27908325 C-24.60844701 70.09926295 -27.17700168 68.90113323 -29.74609375 67.703125 C-31.5347102 66.88106499 -33.32402606 66.06052516 -35.11401367 65.24145508 C-37.87477845 63.9777752 -40.63497728 62.7129754 -43.39289856 61.44309998 C-52.72113252 57.14843645 -62.10421364 52.98126396 -71.49609375 48.828125 C-74.3780378 47.55175799 -77.25949028 46.27428653 -80.140625 44.99609375 C-81.12434837 44.559804 -81.12434837 44.559804 -82.12794495 44.11470032 C-87.66196244 41.65712851 -93.17798849 39.16113133 -98.68359375 36.640625 C-98.68359375 35.980625 -98.68359375 35.320625 -98.68359375 34.640625 C-93.1328125 32.15234375 -87.58203125 29.6640625 -82.03125 27.17578125 C-81.36274017 26.87610443 -80.69423035 26.57642761 -80.00546265 26.26766968 C-71.16288757 22.30375671 -71.16288757 22.30375671 -62.3203125 18.33984375 C-61.13840332 17.80979736 -59.95649414 17.27975098 -58.73876953 16.73364258 C-56.36672607 15.67076773 -53.99400265 14.60940908 -51.62060547 13.54956055 C-45.93544267 11.00859981 -40.25910386 8.45280658 -34.60494995 5.84368896 C-31.92566807 4.60843485 -29.24254939 3.38164756 -26.55908203 2.15551758 C-25.27701883 1.56681509 -23.99686338 0.9739383 -22.71875 0.37670898 C-20.95014987 -0.44940114 -19.17443429 -1.26022623 -17.3984375 -2.0703125 C-15.88431274 -2.77099854 -15.88431274 -2.77099854 -14.33959961 -3.48583984 C-9.20217152 -5.17549126 -4.69685273 -2.12732946 0 0 Z " fill="#FCFCFC" transform="translate(388.68359375,151.359375)"/>
<path d="M0 0 C0.75935852 0.34078079 1.51871704 0.68156158 2.30108643 1.03266907 C4.78672136 2.14898586 7.2702759 3.2698564 9.75390625 4.390625 C11.47681462 5.16497663 13.19987912 5.93898098 14.9230957 6.71264648 C20.05594966 9.01809234 25.18647256 11.32868971 30.31640625 13.640625 C46.24365261 20.81820891 62.16308272 27.98215665 78.31640625 34.640625 C78.31640625 35.300625 78.31640625 35.960625 78.31640625 36.640625 C77.65036377 36.93606201 76.98432129 37.23149902 76.2980957 37.53588867 C63.16921294 43.36113898 50.04726377 49.20123162 36.94140625 55.078125 C35.75716064 55.60849365 34.57291504 56.1388623 33.3527832 56.68530273 C27.64790987 59.24186422 21.94648641 61.8054074 16.25448608 64.39051819 C13.58579463 65.60196076 10.9153842 66.80958634 8.24481201 68.01687622 C6.97152146 68.59379633 5.69908125 69.17259733 4.42755127 69.75338745 C2.66347468 70.55904051 0.89625143 71.3577927 -0.87109375 72.15625 C-1.87527344 72.61290039 -2.87945312 73.06955078 -3.9140625 73.54003906 C-8.53889166 75.37790312 -10.48980074 76.05879023 -15.35180664 74.35571289 C-16.79292198 73.70535439 -18.22738079 73.04012125 -19.65625 72.36328125 C-20.43989929 72.00549591 -21.22354858 71.64771057 -22.03094482 71.27908325 C-24.60844701 70.09926295 -27.17700168 68.90113323 -29.74609375 67.703125 C-31.5347102 66.88106499 -33.32402606 66.06052516 -35.11401367 65.24145508 C-37.87477845 63.9777752 -40.63497728 62.7129754 -43.39289856 61.44309998 C-52.72113252 57.14843645 -62.10421364 52.98126396 -71.49609375 48.828125 C-74.3780378 47.55175799 -77.25949028 46.27428653 -80.140625 44.99609375 C-81.12434837 44.559804 -81.12434837 44.559804 -82.12794495 44.11470032 C-87.66196244 41.65712851 -93.17798849 39.16113133 -98.68359375 36.640625 C-98.68359375 35.980625 -98.68359375 35.320625 -98.68359375 34.640625 C-93.1328125 32.15234375 -87.58203125 29.6640625 -82.03125 27.17578125 C-81.36274017 26.87610443 -80.69423035 26.57642761 -80.00546265 26.26766968 C-71.16288757 22.30375671 -71.16288757 22.30375671 -62.3203125 18.33984375 C-61.13840332 17.80979736 -59.95649414 17.27975098 -58.73876953 16.73364258 C-56.36672607 15.67076773 -53.99400265 14.60940908 -51.62060547 13.54956055 C-45.93544267 11.00859981 -40.25910386 8.45280658 -34.60494995 5.84368896 C-31.92566807 4.60843485 -29.24254939 3.38164756 -26.55908203 2.15551758 C-25.27701883 1.56681509 -23.99686338 0.9739383 -22.71875 0.37670898 C-20.95014987 -0.44940114 -19.17443429 -1.26022623 -17.3984375 -2.0703125 C-15.88431274 -2.77099854 -15.88431274 -2.77099854 -14.33959961 -3.48583984 C-9.20217152 -5.17549126 -4.69685273 -2.12732946 0 0 Z " fill="#FCFCFC" transform="translate(132.68359375,151.359375)"/>
<path d="M0 0 C1.12873032 -0.00426498 2.25746063 -0.00852997 3.4203949 -0.01292419 C5.27900146 -0.01224442 5.27900146 -0.01224442 7.17515564 -0.0115509 C8.47935959 -0.01490952 9.78356354 -0.01826813 11.12728882 -0.02172852 C14.70564842 -0.03056698 18.28398411 -0.0329065 21.86235356 -0.0335443 C24.84719739 -0.03449333 27.83203563 -0.03817138 30.81687731 -0.0417164 C37.85557712 -0.04985959 44.89426415 -0.05230067 51.93296814 -0.05158997 C59.20219433 -0.05098849 66.47134648 -0.0615545 73.74055392 -0.07733363 C79.97669102 -0.09038961 86.21280385 -0.09577472 92.44895452 -0.09513456 C96.17583566 -0.09487909 99.90265094 -0.09775718 103.62951851 -0.10831261 C107.78150159 -0.11975133 111.93331749 -0.11525876 116.08531189 -0.10920715 C117.9469548 -0.11763641 117.9469548 -0.11763641 119.84620667 -0.12623596 C121.5350724 -0.11994423 121.5350724 -0.11994423 123.25805664 -0.11352539 C124.24047868 -0.11407016 125.22290071 -0.11461493 126.23509312 -0.1151762 C128.5655365 0.13371277 128.5655365 0.13371277 130.5655365 2.13371277 C130.76413355 4.88876363 130.83824541 7.5433014 130.82432556 10.29948425 C130.82958252 11.56553497 130.82958252 11.56553497 130.83494568 12.85716248 C130.84377191 15.65646002 130.8379102 18.45550625 130.8311615 21.25480652 C130.83250802 23.19532317 130.83444844 25.13583949 130.83695984 27.07635498 C130.83991241 31.14767156 130.83560964 35.2189005 130.82627869 39.29020691 C130.81489167 44.51379859 130.82143804 49.73718459 130.83342361 54.9607687 C130.84064508 58.96956944 130.83835283 62.97832129 130.83316803 66.98712349 C130.83183193 68.91328518 130.83347785 70.83945129 130.83812714 72.76560783 C130.8431962 75.4567073 130.83547642 78.14747225 130.82432556 80.83854675 C130.83039825 82.03792625 130.83039825 82.03792625 130.83659363 83.26153564 C130.80718584 87.08512547 130.73812212 88.87483434 128.5655365 92.13371277 C124.9405365 92.32121277 124.9405365 92.32121277 121.5655365 92.13371277 C121.2355365 89.49371277 120.9055365 86.85371277 120.5655365 84.13371277 C121.2255365 84.13371277 121.8855365 84.13371277 122.5655365 84.13371277 C122.5655365 59.05371277 122.5655365 33.97371277 122.5655365 8.13371277 C81.9755365 8.13371277 41.3855365 8.13371277 -0.4344635 8.13371277 C-0.4344635 33.21371277 -0.4344635 58.29371277 -0.4344635 84.13371277 C24.9755365 84.13371277 50.3855365 84.13371277 76.5655365 84.13371277 C76.8955365 82.48371277 77.2255365 80.83371277 77.5655365 79.13371277 C80.69524539 73.56978585 84.51430715 69.58998132 90.3155365 66.82121277 C98.2460707 65.14359976 104.21600634 65.66056409 111.36631775 69.64543152 C115.46456399 72.41884505 117.71303223 75.42870423 119.9405365 79.88371277 C121.38237003 87.38124714 119.99840867 93.68434309 116.0186615 100.15715027 C112.5014773 104.94127716 108.44250822 107.84077899 102.5655365 109.13371277 C96.69600921 109.60706174 91.72179684 109.16555115 86.5655365 106.13371277 C82.36325995 102.37727594 80.0414251 98.15501105 77.5655365 93.13371277 C76.54933731 93.14481583 75.53313812 93.15591888 74.48614502 93.1673584 C64.90759207 93.26873407 55.32914802 93.34367795 45.75018024 93.39277363 C40.82553047 93.41886301 35.9013139 93.45424906 30.97691345 93.51091003 C26.22418145 93.56525329 21.471866 93.59513826 16.71884727 93.60809898 C14.90591563 93.61733472 13.09300667 93.63537029 11.28025246 93.66236305 C8.73983704 93.69868518 6.20114068 93.70365696 3.6605072 93.70133972 C2.91172302 93.7193161 2.16293884 93.73729248 1.39146423 93.7558136 C-2.32149696 93.71919027 -4.31090817 93.21752548 -7.40393066 91.11940002 C-9.9951528 87.3092775 -10.11234741 84.24652689 -10.01795959 79.79508972 C-10.02029602 78.96851868 -10.02263245 78.14194763 -10.02503967 77.29032898 C-10.02665051 74.56690134 -9.99266593 71.84518042 -9.957901 69.12199402 C-9.95111038 67.22821667 -9.94638891 65.33443086 -9.94364929 63.44064331 C-9.93298024 59.47699881 -9.90630122 55.51391954 -9.86659241 51.55046082 C-9.8156214 46.46253508 -9.79056561 41.37493351 -9.77565575 36.28678608 C-9.76088816 31.44014354 -9.73565387 26.59357758 -9.707901 21.74699402 C-9.70299023 20.818706 -9.69807945 19.89041798 -9.69301987 18.93400002 C-9.67678948 16.31729861 -9.65338721 13.70077209 -9.62733459 11.08415222 C-9.62307465 10.30438522 -9.6188147 9.52461823 -9.61442566 8.72122192 C-9.54959799 3.36398175 -9.54959799 3.36398175 -8.4344635 1.13371277 C-5.34825307 0.10497596 -3.23405613 0.00551463 0 0 Z " fill="#E5E5E5" transform="translate(183.43446350097656,52.86628723144531)"/>
<path d="M0 0 C1.12873032 -0.00426498 2.25746063 -0.00852997 3.4203949 -0.01292419 C5.27900146 -0.01224442 5.27900146 -0.01224442 7.17515564 -0.0115509 C8.47935959 -0.01490952 9.78356354 -0.01826813 11.12728882 -0.02172852 C14.70564842 -0.03056698 18.28398411 -0.0329065 21.86235356 -0.0335443 C24.84719739 -0.03449333 27.83203563 -0.03817138 30.81687731 -0.0417164 C37.85557712 -0.04985959 44.89426415 -0.05230067 51.93296814 -0.05158997 C59.20219433 -0.05098849 66.47134648 -0.0615545 73.74055392 -0.07733363 C79.97669102 -0.09038961 86.21280385 -0.09577472 92.44895452 -0.09513456 C96.17583566 -0.09487909 99.90265094 -0.09775718 103.62951851 -0.10831261 C107.78150159 -0.11975133 111.93331749 -0.11525876 116.08531189 -0.10920715 C117.9469548 -0.11763641 117.9469548 -0.11763641 119.84620667 -0.12623596 C121.5350724 -0.11994423 121.5350724 -0.11994423 123.25805664 -0.11352539 C124.24047868 -0.11407016 125.22290071 -0.11461493 126.23509312 -0.1151762 C128.5655365 0.13371277 128.5655365 0.13371277 130.5655365 2.13371277 C130.76413355 4.88876363 130.83824541 7.5433014 130.82432556 10.29948425 C130.82958252 11.56553497 130.82958252 11.56553497 130.83494568 12.85716248 C130.84377191 15.65646002 130.8379102 18.45550625 130.8311615 21.25480652 C130.83250802 23.19532317 130.83444844 25.13583949 130.83695984 27.07635498 C130.83991241 31.14767156 130.83560964 35.2189005 130.82627869 39.29020691 C130.81489167 44.51379859 130.82143804 49.73718459 130.83342361 54.9607687 C130.84064508 58.96956944 130.83835283 62.97832129 130.83316803 66.98712349 C130.83183193 68.91328518 130.83347785 70.83945129 130.83812714 72.76560783 C130.8431962 75.4567073 130.83547642 78.14747225 130.82432556 80.83854675 C130.83039825 82.03792625 130.83039825 82.03792625 130.83659363 83.26153564 C130.80718584 87.08512547 130.73812212 88.87483434 128.5655365 92.13371277 C124.9405365 92.32121277 124.9405365 92.32121277 121.5655365 92.13371277 C121.5655365 90.48371277 121.5655365 88.83371277 121.5655365 87.13371277 C122.5555365 86.80371277 123.5455365 86.47371277 124.5655365 86.13371277 C124.5655365 59.73371277 124.5655365 33.33371277 124.5655365 6.13371277 C82.3255365 5.80371277 40.0855365 5.47371277 -3.4344635 5.13371277 C-3.1044635 31.86371277 -2.7744635 58.59371277 -2.4344635 86.13371277 C23.3055365 86.46371277 49.0455365 86.79371277 75.5655365 87.13371277 C75.5655365 88.78371277 75.5655365 90.43371277 75.5655365 92.13371277 C64.92595131 92.22630713 54.28646163 92.29742402 43.6465559 92.34096146 C38.70623757 92.36185509 33.76619446 92.39020507 28.82603455 92.43547058 C24.0603597 92.4788651 19.29494992 92.50283649 14.52909279 92.51322174 C12.70895017 92.52062463 10.88882241 92.53508049 9.06879234 92.556633 C6.52335903 92.58558253 3.9790273 92.5896724 1.43345642 92.58781433 C0.67748169 92.60219543 -0.07849304 92.61657654 -0.8573761 92.63139343 C-3.92394712 92.60709953 -5.93185996 92.52016193 -8.40393066 90.61940002 C-9.87691276 87.0665071 -9.8357387 83.69012657 -9.79090881 79.90861511 C-9.79295319 79.08219009 -9.79499756 78.25576508 -9.79710388 77.40429688 C-9.80010921 74.67585542 -9.78164447 71.94801977 -9.7625885 69.21965027 C-9.75953073 67.32443898 -9.75765475 65.42922545 -9.75691223 63.53401184 C-9.75231096 59.56455368 -9.73788996 55.59529858 -9.7157135 51.62590027 C-9.68739277 46.53010344 -9.67649793 41.43446631 -9.6720314 36.33859825 C-9.66788129 32.42677708 -9.65806786 28.51498838 -9.64615631 24.60318375 C-9.64044794 22.72364691 -9.63569111 20.84410694 -9.63188934 18.96456528 C-9.62503855 16.34299438 -9.61141273 13.72155156 -9.59559631 11.10002136 C-9.59447845 10.31868332 -9.5933606 9.53734528 -9.59220886 8.73233032 C-9.54915877 3.36310331 -9.54915877 3.36310331 -8.4344635 1.13371277 C-5.34825307 0.10497596 -3.23405613 0.00551463 0 0 Z " fill="#0B0B0B" transform="translate(183.43446350097656,52.86628723144531)"/>
<path d="M0 0 C3.6683242 3.87596519 4.28210786 7.68828035 4.5 12.9375 C4.26377775 19.23675999 2.87886832 23.83809688 -1.390625 28.52734375 C-6.27988327 32.9662756 -11.37643432 34.46703088 -17.921875 34.2421875 C-24.53262019 33.47176231 -28.58755807 31.03533398 -32.7734375 25.9140625 C-36.60117356 19.9408438 -36.86202364 13.91414798 -36 7 C-33.80192994 1.01418421 -29.54490814 -3.01428023 -24 -6 C-15.38217888 -9.26079718 -6.50999198 -5.83380137 0 0 Z " fill="#0A0A0A" transform="translate(298,128)"/>
<path d="M0 0 C23.43 0 46.86 0 71 0 C71 3.3 71 6.6 71 10 C47.57 10 24.14 10 0 10 C0 6.7 0 3.4 0 0 Z " fill="#F9F9F9" transform="translate(208,67)"/>
<path d="M0 0 C0.33 0 0.66 0 1 0 C1 26.4 1 52.8 1 80 C-0.32 80.33 -1.64 80.66 -3 81 C-3.33 80.01 -3.66 79.02 -4 78 C-3.34 78 -2.68 78 -2 78 C-2 52.92 -2 27.84 -2 2 C-42.59 2 -83.18 2 -125 2 C-125 27.08 -125 52.16 -125 78 C-99.59 78 -74.18 78 -48 78 C-48 78.33 -48 78.66 -48 79 C-73.74 79 -99.48 79 -126 79 C-126 53.26 -126 27.52 -126 1 C-116.98816406 1.01160156 -107.97632813 1.02320313 -98.69140625 1.03515625 C-92.27606454 1.04091161 -85.86072476 1.04603854 -79.44538212 1.05025387 C-71.1239827 1.05580576 -62.80259326 1.06286565 -54.48120117 1.07543945 C-47.89520334 1.08538632 -41.30921302 1.09185343 -34.72320789 1.09408849 C-31.23386929 1.0953956 -27.74455216 1.09848142 -24.25522041 1.10573006 C-20.36618768 1.11374398 -16.47717622 1.11399114 -12.58813477 1.11352539 C-10.84026421 1.1189183 -10.84026421 1.1189183 -9.05708313 1.12442017 C-8.00393921 1.1230455 -6.95079529 1.12167084 -5.86573792 1.12025452 C-4.94486672 1.12117631 -4.02399553 1.1220981 -3.07521915 1.12304783 C-1.00970745 1.23104526 -1.00970745 1.23104526 0 0 Z " fill="#6E6E6E" transform="translate(308,59)"/>
<path d="M0 0 C4.09824624 2.77341353 6.34671448 5.78327271 8.57421875 10.23828125 C9.44756349 14.77967388 8.86406599 18.94216362 8.19921875 23.48828125 C7.86921875 23.48828125 7.53921875 23.48828125 7.19921875 23.48828125 C7.18503906 22.78703125 7.17085938 22.08578125 7.15625 21.36328125 C6.8158055 14.59119607 5.840156 9.59933941 1.19921875 4.48828125 C-3.680074 0.21734816 -9.46726187 -0.59588512 -15.80078125 -0.51171875 C-21.92260709 0.68863926 -27.06233525 4.05445685 -30.67578125 9.11328125 C-32.3292418 13.64421414 -32.3292418 13.64421414 -32.80078125 23.48828125 C-60.19078125 23.48828125 -87.58078125 23.48828125 -115.80078125 23.48828125 C-115.80078125 23.15828125 -115.80078125 22.82828125 -115.80078125 22.48828125 C-89.40078125 22.48828125 -63.00078125 22.48828125 -35.80078125 22.48828125 C-35.80078125 20.83828125 -35.80078125 19.18828125 -35.80078125 17.48828125 C-61.54078125 17.48828125 -87.28078125 17.48828125 -113.80078125 17.48828125 C-113.80078125 16.82828125 -113.80078125 16.16828125 -113.80078125 15.48828125 C-87.73078125 15.48828125 -61.66078125 15.48828125 -34.80078125 15.48828125 C-34.47078125 13.50828125 -34.14078125 11.52828125 -33.80078125 9.48828125 C-30.72674913 3.90948221 -26.83184831 -0.06507311 -21.05078125 -2.82421875 C-13.12024705 -4.50183175 -7.15031141 -3.98486743 0 0 Z " fill="#B8B8B8" transform="translate(294.80078125,122.51171875)"/>
<path d="M0 0 C0 9.9 0 19.8 0 30 C-9 29 -9 29 -11.5 26.75 C-14.88923452 20.53640338 -14.81409204 12.90208465 -14 6 C-10.77967384 0.08805794 -6.34504389 0 0 0 Z " fill="#F7F7F7" transform="translate(216,231)"/>
<path d="M0 0 C3.6683242 3.87596519 4.28210786 7.68828035 4.5 12.9375 C4.26377775 19.23675999 2.87886832 23.83809688 -1.390625 28.52734375 C-6.27988327 32.9662756 -11.37643432 34.46703088 -17.921875 34.2421875 C-24.53262019 33.47176231 -28.58755807 31.03533398 -32.7734375 25.9140625 C-36.60117356 19.9408438 -36.86202364 13.91414798 -36 7 C-33.80192994 1.01418421 -29.54490814 -3.01428023 -24 -6 C-15.38217888 -9.26079718 -6.50999198 -5.83380137 0 0 Z M-31.63671875 4.5546875 C-34.22874553 9.20399628 -33.8753384 13.87503484 -33 19 C-31.49673655 23.80694709 -28.30422797 27.40039926 -24.12109375 30.1171875 C-19.25590578 32.1421092 -13.82441489 31.97788214 -8.87890625 30.265625 C-3.97553784 27.69267469 -0.74157513 24.22472538 1 19 C1.47907487 13.55739529 1.6896865 8.64925032 -0.4375 3.5625 C-4.83033851 -0.83033851 -9.81617376 -4.23096127 -16.1875 -4.5 C-23.02541562 -3.60322418 -27.28186701 -0.67885937 -31.63671875 4.5546875 Z " fill="#202020" transform="translate(298,128)"/>
<path d="M0 0 C32.01 0 64.02 0 97 0 C97.495 1.485 97.495 1.485 98 3 C65.33 3 32.66 3 -1 3 C-0.67 2.01 -0.34 1.02 0 0 Z " fill="#B4B4B4" transform="translate(197,90)"/>
<path d="M0 0 C4.90106839 2.49479672 8.449107 4.87337408 10.62890625 10.0859375 C11.39049732 16.52403878 11.58731791 22.67610823 7.62890625 28.0859375 C3.29397582 32.42086793 -0.43700211 34.23851151 -6.55859375 34.5234375 C-11.85955808 34.47428949 -14.82734858 33.27015454 -18.77734375 29.7734375 C-23.48920125 24.78441192 -24.08371558 19.73771631 -23.91796875 13.06640625 C-22.9953567 8.03817059 -20.25536493 5.22959714 -16.37109375 2.0859375 C-11.13755368 -1.47732382 -5.89369581 -2.2720343 0 0 Z M-19.37109375 8.0859375 C-22.09455396 12.17112781 -21.9838826 15.29222219 -21.37109375 20.0859375 C-20.04673787 24.60619409 -18.11089097 27.98389583 -14.12109375 30.5859375 C-9.55384451 32.77197132 -5.24662332 33.07367022 -0.44921875 31.42578125 C3.53880766 29.45733232 5.98903344 26.99068312 7.9765625 23.015625 C9.42234167 18.73888901 9.05651033 14.75748073 7.94140625 10.3984375 C5.65140433 6.36367222 3.05359849 3.56083491 -1.37109375 2.0859375 C-9.27129021 1.09212298 -14.16304602 1.84539051 -19.37109375 8.0859375 Z " fill="#CFCFCF" transform="translate(288.37109375,124.9140625)"/>
<path d="M0 0 C6.4679556 1.29359112 6.4679556 1.29359112 9 5 C9.63419737 8.15653871 9.64934687 11.22614841 9.625 14.4375 C9.65722656 15.28376953 9.68945312 16.13003906 9.72265625 17.00195312 C9.73207666 23.01688556 9.73207666 23.01688556 7.72558594 25.71142578 C5.11056215 28.00989406 3.51469808 29 0 29 C0 19.43 0 9.86 0 0 Z " fill="#F7F7F7" transform="translate(285,227)"/>
<path d="M0 0 C3.3 1.98 6.6 3.96 10 6 C9.05610147 10.71949266 7.73563661 14.54771478 6 19 C5.44828125 18.50886719 4.8965625 18.01773438 4.328125 17.51171875 C1.53629931 15.69890576 0.03814259 15.6827049 -3.25 15.8125 C-4.14203125 15.83957031 -5.0340625 15.86664063 -5.953125 15.89453125 C-6.62859375 15.92933594 -7.3040625 15.96414062 -8 16 C-6.25267359 9.73519555 -4.02879721 5.11766132 0 0 Z " fill="#111111" transform="translate(265,157)"/>
<path d="M0 0 C0.66 0 1.32 0 2 0 C2.185625 0.639375 2.37125 1.27875 2.5625 1.9375 C3.94246056 4.42126213 3.94246056 4.42126213 7.625 4.75 C8.73875 4.8325 9.8525 4.915 11 5 C11 5.66 11 6.32 11 7 C10.01 7.66 9.02 8.32 8 9 C8.33 11.97 8.66 14.94 9 18 C7.9275 17.484375 6.855 16.96875 5.75 16.4375 C2.91620242 15.22530034 2.91620242 15.22530034 -0.125 15.1875 C-0.74375 15.455625 -1.3625 15.72375 -2 16 C-2.9075 16.350625 -3.815 16.70125 -4.75 17.0625 C-5.86375 17.5265625 -5.86375 17.5265625 -7 18 C-6.90460938 17.39671875 -6.80921875 16.7934375 -6.7109375 16.171875 C-6.60007812 15.37265625 -6.48921875 14.5734375 -6.375 13.75 C-6.25898438 12.96109375 -6.14296875 12.1721875 -6.0234375 11.359375 C-5.99680605 8.67847541 -6.63407916 7.27305911 -8 5 C-6.576875 4.87625 -6.576875 4.87625 -5.125 4.75 C-1.89538209 4.34925077 -1.89538209 4.34925077 -0.625 1.9375 C-0.41875 1.298125 -0.2125 0.65875 0 0 Z " fill="#E0E0E0" transform="translate(281,132)"/>
<path d="M0 0 C0 26.4 0 52.8 0 80 C-1.98 80.495 -1.98 80.495 -4 81 C-4.33 80.01 -4.66 79.02 -5 78 C-4.34 78 -3.68 78 -3 78 C-3 52.59 -3 27.18 -3 1 C-1 0 -1 0 0 0 Z " fill="#A1A1A1" transform="translate(309,59)"/>
<path d="M0 0 C4.09824624 2.77341353 6.34671448 5.78327271 8.57421875 10.23828125 C9.44756349 14.77967388 8.86406599 18.94216362 8.19921875 23.48828125 C7.86921875 23.48828125 7.53921875 23.48828125 7.19921875 23.48828125 C7.18503906 22.78703125 7.17085938 22.08578125 7.15625 21.36328125 C6.8158055 14.59119607 5.840156 9.59933941 1.19921875 4.48828125 C-3.680074 0.21734816 -9.46726187 -0.59588512 -15.80078125 -0.51171875 C-21.95957497 0.69588786 -27.14953331 4.06645094 -30.67578125 9.23828125 C-32.08490996 13.30909753 -32.52484934 17.20657927 -32.80078125 21.48828125 C-33.13078125 21.48828125 -33.46078125 21.48828125 -33.80078125 21.48828125 C-34.89007395 16.22516405 -35.59848107 11.93974465 -32.73828125 7.17578125 C-24.44908423 -4.15889423 -12.25865879 -6.83174862 0 0 Z " fill="#D7D7D7" transform="translate(294.80078125,122.51171875)"/>
<path d="M0 0 C0.515625 0.2475 1.03125 0.495 1.5625 0.75 C1.5625 2.4 1.5625 4.05 1.5625 5.75 C2.614375 5.234375 3.66625 4.71875 4.75 4.1875 C8.04773767 2.75311817 10.0689368 2.58547893 13.5625 3.75 C13.5625 5.07 13.5625 6.39 13.5625 7.75 C14.2225 7.42 14.8825 7.09 15.5625 6.75 C17.10273996 6.68049459 18.64584988 6.66547643 20.1875 6.6875 C21.41339844 6.70103516 21.41339844 6.70103516 22.6640625 6.71484375 C23.29054687 6.72644531 23.91703125 6.73804687 24.5625 6.75 C25.0575 7.74 25.0575 7.74 25.5625 8.75 C20.9425 9.08 16.3225 9.41 11.5625 9.75 C11.5625 8.1 11.5625 6.45 11.5625 4.75 C10.88703125 5.12253906 10.2115625 5.49507813 9.515625 5.87890625 C8.62359375 6.35199219 7.7315625 6.82507813 6.8125 7.3125 C5.93078125 7.78816406 5.0490625 8.26382813 4.140625 8.75390625 C1.35548812 9.82998186 0.29269786 9.81528748 -2.4375 8.75 C-1.7775 6.77 -1.1175 4.79 -0.4375 2.75 C-6.22215372 5.59641691 -10.69520584 8.59128614 -15.02734375 13.39453125 C-16.4375 14.75 -16.4375 14.75 -18.4375 14.75 C-15.57716505 8.38749885 -7.63587445 -0.78316661 0 0 Z " fill="#D5D5D5" transform="translate(214.4375,115.25)"/>
<path d="M0 0 C0.66 0.33 1.32 0.66 2 1 C2.49700492 6.964059 1.38479516 11.02727625 -2 16 C-6.47609571 20.97902781 -11.30394132 22.78257591 -17.875 23.3125 C-22.38676631 23.19948851 -25.90949797 21.86584303 -30 20 C-30.33 19.34 -30.66 18.68 -31 18 C-29.1875 17.375 -29.1875 17.375 -27 17 C-26.01 17.66 -25.02 18.32 -24 19 C-16.92138602 19.96936434 -11.71913622 19.28935216 -6 15 C-4.15684329 13.0995533 -4.15684329 13.0995533 -3 11 C-2.62875 10.401875 -2.2575 9.80375 -1.875 9.1875 C-0.67368754 6.18421884 -0.36919686 3.19970616 0 0 Z " fill="#141414" transform="translate(300,139)"/>
<path d="M0 0 C4.89415681 2.50342561 8.41097717 4.89170319 10.625 10.08984375 C10.92601546 13.78366063 10.86174183 17.39404079 10.625 21.08984375 C10.295 21.08984375 9.965 21.08984375 9.625 21.08984375 C9.46644531 20.28160156 9.30789063 19.47335938 9.14453125 18.640625 C7.36237731 10.15031125 7.36237731 10.15031125 1.625 4.08984375 C-2.50818505 2.7121154 -6.33623058 3.11897195 -10.66015625 3.25 C-13.375 3.08984375 -13.375 3.08984375 -15.375 1.08984375 C-10.25223511 -1.47153869 -5.33983791 -2.04635236 0 0 Z " fill="#DDDDDD" transform="translate(288.375,124.91015625)"/>
<path d="M0 0 C3.73424874 3.34116992 6.05134726 7.06700573 7 12 C6.85851432 15.36533803 6.48723622 18.66835774 6 22 C5.67 22 5.34 22 5 22 C4.98582031 21.29875 4.97164063 20.5975 4.95703125 19.875 C4.61857078 13.14238084 3.67274963 8.05517415 -1 3 C-3.27837169 1.29249549 -5.39181207 0.23296157 -8 -1 C-8.804375 -1.4125 -9.60875 -1.825 -10.4375 -2.25 C-10.953125 -2.4975 -11.46875 -2.745 -12 -3 C-7.11773676 -4.66366654 -4.11092524 -2.72154693 0 0 Z " fill="#C8C8C8" transform="translate(297,124)"/>
<path d="M0 0 C0.515625 0.2475 1.03125 0.495 1.5625 0.75 C0.9025 2.07 0.2425 3.39 -0.4375 4.75 C-0.4375 4.09 -0.4375 3.43 -0.4375 2.75 C-6.22215372 5.59641691 -10.69520584 8.59128614 -15.02734375 13.39453125 C-16.4375 14.75 -16.4375 14.75 -18.4375 14.75 C-15.57716505 8.38749885 -7.63587445 -0.78316661 0 0 Z " fill="#C8C8C8" transform="translate(214.4375,115.25)"/>
<path d="M0 0 C5.05374714 2.3864917 6.70433394 5.06856921 9 10 C9.25 12.9375 9.25 12.9375 9 15 C8.67 15 8.34 15 8 15 C7.67 16.98 7.34 18.96 7 21 C6.67 21 6.34 21 6 21 C5.98582031 20.29875 5.97164063 19.5975 5.95703125 18.875 C5.64519683 12.6720234 4.75443696 8.59457274 1.05859375 3.55859375 C0 2 0 2 0 0 Z " fill="#242424" transform="translate(293,125)"/>
<path d="M0 0 C0.66 0.33 1.32 0.66 2 1 C2.4989111 6.98693319 1.20009713 10.91955383 -2 16 C-2.66 16.66 -3.32 17.32 -4 18 C-4.99 18 -5.98 18 -7 18 C-5.77295171 15.44364939 -4.44175157 13.10341918 -2.9375 10.6875 C-0.85603341 7.11263916 -0.33470869 4.10018139 0 0 Z " fill="#1A1A1A" transform="translate(300,139)"/>
<path d="M0 0 C0.99 0.33 1.98 0.66 3 1 C2.50628906 1.44988281 2.01257813 1.89976562 1.50390625 2.36328125 C-3.44523411 7.33233767 -4.80873706 10.87958597 -5.02734375 17.875 C-5.01832031 18.57625 -5.00929688 19.2775 -5 20 C-5.66 20 -6.32 20 -7 20 C-8.0735426 9.77578475 -8.0735426 9.77578475 -5.44140625 5.421875 C-3.71090566 3.48594275 -1.96074496 1.70064614 0 0 Z " fill="#E3E3E3" transform="translate(272,127)"/>
<path d="M0 0 C2 1.5 2 1.5 3 3 C0.27457733 4.36271133 -1.96087274 4.16923601 -5 4.1875 C-6.0725 4.20167969 -7.145 4.21585938 -8.25 4.23046875 C-11 4 -11 4 -13 2 C-8.47806839 -0.2609658 -4.96161052 -0.40012988 0 0 Z " fill="#BEBEBE" transform="translate(286,124)"/>
<path d="M0 0 C1.32 0.33 2.64 0.66 4 1 C4 2.32 4 3.64 4 5 C4.66 4.67 5.32 4.34 6 4 C7.54023996 3.93049459 9.08334988 3.91547643 10.625 3.9375 C11.85089844 3.95103516 11.85089844 3.95103516 13.1015625 3.96484375 C14.04128906 3.98224609 14.04128906 3.98224609 15 4 C15.33 4.66 15.66 5.32 16 6 C11.38 6.33 6.76 6.66 2 7 C2 5.02 2 3.04 2 1 C1.34 0.67 0.68 0.34 0 0 Z " fill="#E2E2E2" transform="translate(224,118)"/>
<path d="M0 0 C-2.55081829 2.97595467 -5.43434437 4.44002566 -9 6 C-9.99 6 -10.98 6 -12 6 C-12 4.35 -12 2.7 -12 1 C-11.34 1.66 -10.68 2.32 -10 3 C-9.649375 2.505 -9.29875 2.01 -8.9375 1.5 C-6.05625711 -0.73063966 -3.52990974 -0.19980621 0 0 Z " fill="#D4D4D4" transform="translate(304,172)"/>
<path d="M0 0 C0.99 0 1.98 0 3 0 C2.50746057 2.21642742 1.92485227 4.1690824 1 6.25 C-0.30605918 9.84166274 -0.61352165 13.19962955 -1 17 C-1.33 17 -1.66 17 -2 17 C-2.05418326 14.91695462 -2.09287551 12.83350232 -2.125 10.75 C-2.14820313 9.58984375 -2.17140625 8.4296875 -2.1953125 7.234375 C-2.0103949 4.17213954 -1.60823023 2.55797249 0 0 Z " fill="#0E0E0E" transform="translate(265,129)"/>
<path d="M0 0 C0.66 0.66 1.32 1.32 2 2 C-3.91596639 7.24369748 -3.91596639 7.24369748 -8 8 C-8.33 8.66 -8.66 9.32 -9 10 C-9 9.01 -9 8.02 -9 7 C-9.66 6.67 -10.32 6.34 -11 6 C-10.45730469 5.81824219 -9.91460937 5.63648438 -9.35546875 5.44921875 C-8.28232422 5.07216797 -8.28232422 5.07216797 -7.1875 4.6875 C-6.47980469 4.44386719 -5.77210938 4.20023438 -5.04296875 3.94921875 C-2.85527627 2.93275742 -1.59103282 1.79179406 0 0 Z " fill="#D5D5D5" transform="translate(297,155)"/>
<path d="M0 0 C0.53109375 0.33773437 1.0621875 0.67546875 1.609375 1.0234375 C2.31578125 1.46945313 3.0221875 1.91546875 3.75 2.375 C4.79414063 3.03628906 4.79414063 3.03628906 5.859375 3.7109375 C7.86517383 4.91880906 9.89178296 5.98387737 12 7 C11.34 7 10.68 7 10 7 C9.67 7.99 9.34 8.98 9 10 C9 9.34 9 8.68 9 8 C8.0925 7.773125 7.185 7.54625 6.25 7.3125 C2.55111676 5.81872023 1.22094342 4.24599423 -1 1 C-0.67 0.67 -0.34 0.34 0 0 Z " fill="#D0D0D0" transform="translate(266,155)"/>
<path d="M0 0 C0.99 0.33 1.98 0.66 3 1 C1.71451591 2.33929505 0.42141845 3.67128643 -0.875 5 C-1.59429687 5.7425 -2.31359375 6.485 -3.0546875 7.25 C-5 9 -5 9 -7 9 C-5.44499019 5.18315774 -2.96404505 2.80804268 0 0 Z " fill="#DFDFDF" transform="translate(203,121)"/>
<path d="M0 0 C0.33 0 0.66 0 1 0 C0.855625 0.969375 0.71125 1.93875 0.5625 2.9375 C-0.06047442 7.28052169 -0.53507859 11.63765234 -1 16 C-1.33 16 -1.66 16 -2 16 C-3.01924246 9.78630501 -3.62926746 5.51648654 0 0 Z " fill="#C5C5C5" transform="translate(263,128)"/>
<path d="M0 0 C0.33 0 0.66 0 1 0 C2.19876651 5.44893869 1.91360308 8.22169095 -1 13 C-1.99 12.34 -2.98 11.68 -4 11 C-3.525625 10.29875 -3.05125 9.5975 -2.5625 8.875 C-0.91260143 5.83918663 -0.39631536 3.40831214 0 0 Z " fill="#CBCBCB" transform="translate(297,140)"/>
<path d="M0 0 C0.99 0.33 1.98 0.66 3 1 C2.07347299 2.17539996 1.13336613 3.34010577 0.1875 4.5 C-0.33457031 5.1496875 -0.85664063 5.799375 -1.39453125 6.46875 C-3 8 -3 8 -6 8 C-4.55746343 4.63408134 -2.66735273 2.48952921 0 0 Z " fill="#D6D6D6" transform="translate(272,127)"/>
<path d="M0 0 C2.625 0.9375 2.625 0.9375 5 2 C5 2.66 5 3.32 5 4 C5.66 4.33 6.32 4.66 7 5 C1.46153846 4.38461538 1.46153846 4.38461538 -0.875 2.4375 C-1.24625 1.963125 -1.6175 1.48875 -2 1 C-1.34 0.67 -0.68 0.34 0 0 Z " fill="#212121" transform="translate(271,156)"/>
<path d="M0 0 C0.86625 0.556875 0.86625 0.556875 1.75 1.125 C-0.5625 2.6875 -0.5625 2.6875 -3.25 4.125 C-4.24 3.795 -5.23 3.465 -6.25 3.125 C-6.25 2.465 -6.25 1.805 -6.25 1.125 C-2.80384615 -1.09038462 -2.80384615 -1.09038462 0 0 Z " fill="#242424" transform="translate(293.25,156.875)"/>
<path d="M0 0 C0.82638376 2.89234315 1 4.88742431 1 8 C-0.32 7.67 -1.64 7.34 -3 7 C-2.67 5.68 -2.34 4.36 -2 3 C-1.34 3 -0.68 3 0 3 C0 2.01 0 1.02 0 0 Z " fill="#DBDBDB" transform="translate(215,117)"/>
<path d="M0 0 C0.66 0.33 1.32 0.66 2 1 C2.125 7.75 2.125 7.75 1 10 C0.34 10 -0.32 10 -1 10 C-0.67 6.7 -0.34 3.4 0 0 Z " fill="#070707" transform="translate(300,139)"/>
<path d="M0 0 C-0.625 1.9375 -0.625 1.9375 -2 4 C-5.125 4.75 -5.125 4.75 -8 5 C-3.22727273 0 -3.22727273 0 0 0 Z " fill="#DCDCDC" transform="translate(295,152)"/>
<path d="M0 0 C4.75 1.875 4.75 1.875 7 3 C6.67 4.32 6.34 5.64 6 7 C4.02 4.69 2.04 2.38 0 0 Z " fill="#D3D3D3" transform="translate(288,126)"/>
<path d="M0 0 C1.32 0 2.64 0 4 0 C2.25 3.875 2.25 3.875 0 5 C0 4.34 0 3.68 0 3 C-0.66 2.67 -1.32 2.34 -2 2 C-1.34 1.34 -0.68 0.68 0 0 Z " fill="#2C2C2C" transform="translate(268,126)"/>
</svg>
